<?xml version="1.0" encoding="UTF-8"?>
<svg width="142px" height="32px" viewBox="0 0 142 32" version="1.1" xmlns="http://www.w3.org/2000/svg" xmlns:xlink="http://www.w3.org/1999/xlink">
    <title>BoldSign_logo</title>
    <g id="BoldSign_logo" stroke="none" stroke-width="1" fill="none" fill-rule="evenodd">
        <g id="Group" transform="translate(1.000000, 1.000000)">
            <g id="Group-62">
                <circle id="Oval" fill="#FE4901" cx="15" cy="15" r="15"></circle>
                <path d="M16.5965313,16.6152872 L13.9135589,23.6160089 C13.8123805,23.8830291 13.5646678,24.0096925 13.320444,23.9994225 C13.0971538,23.9891525 12.8773524,23.8624891 12.7831518,23.6194322 L7.01947115,8.75873164 C6.96713749,8.62522155 7.02644897,8.50540479 7.12413847,8.44378475 C7.22182797,8.38216471 7.3578955,8.37874137 7.45907391,8.48144144 L12.6540621,13.6883352 C12.3609936,14.5236291 12.7447738,15.5437831 13.8333139,15.87927 C14.0740488,15.9545834 14.339206,15.9580068 14.5799408,15.8861167 C15.9755052,15.4718931 16.2476402,13.9142753 15.3928571,13.0584414 C14.925343,12.5894444 14.2554721,12.4662043 13.672824,12.6716044 L8.46388022,7.44759404 C8.36270181,7.34489397 8.36619072,7.21138387 8.43248002,7.11895381 C8.49528042,7.0231004 8.6208812,6.96832703 8.75345981,7.01967707 L23.6197087,12.8085379 C23.8743992,12.9078146 24,13.1337548 24,13.3596949 C24,13.5856351 23.8709103,13.8115752 23.6162198,13.910852 L16.5965313,16.6152872 Z" id="Path" fill="#FFFFFF" fill-rule="nonzero"></path>
            </g>
            <path d="M45.2720012,22.7840029 C48.3440017,22.7840029 50.432002,20.7320026 50.432002,17.8760021 C50.432002,15.8480018 49.1720018,14.3840015 47.5040016,13.9280015 C48.7400018,13.4000014 49.5800019,12.1520012 49.5800019,10.5320009 C49.5800019,7.80800046 47.6360016,5.98400016 44.5040011,5.98400016 L38,5.98400016 L38,22.7840029 L45.2720012,22.7840029 Z M44.204001,12.6560013 L41.8520006,12.6560013 L41.8520006,9.17600068 L44.204001,9.17600068 C45.1880012,9.17600068 45.8840013,9.80000079 45.8840013,10.916001 C45.8840013,12.0320012 45.1880012,12.6560013 44.204001,12.6560013 Z M44.6960011,19.5920024 L41.8520006,19.5920024 L41.8520006,15.7280018 L44.6960011,15.7280018 C45.7520013,15.7280018 46.4960014,16.4840019 46.4960014,17.6600021 C46.4960014,18.8240023 45.7520013,19.5920024 44.6960011,19.5920024 Z M58.9585466,23.072003 C62.9305472,23.072003 65.9185477,20.2160025 65.9185477,16.5680019 C65.9185477,12.9200013 62.9305472,10.0640008 58.9585466,10.0640008 C54.9865459,10.0640008 51.9985454,12.9200013 51.9985454,16.5680019 C51.9985454,20.2160025 54.9865459,23.072003 58.9585466,23.072003 Z M58.9585466,19.6880024 C57.1705463,19.6880024 55.8265461,18.3440022 55.8265461,16.5680019 C55.8265461,14.8040016 57.1705463,13.4480014 58.9585466,13.4480014 C60.7465469,13.4480014 62.0905471,14.8040016 62.0905471,16.5680019 C62.0905471,18.3440022 60.7465469,19.6880024 58.9585466,19.6880024 Z M71.9490918,22.7840029 L71.9490918,5.26400004 L68.0970912,5.26400004 L68.0970912,22.7840029 L71.9490918,22.7840029 Z M79.9956376,23.072003 C81.6276379,23.072003 82.9716381,22.4480029 83.9436382,21.4160027 L83.9436382,22.7840029 L87.7356389,22.7840029 L87.7356389,5.26400004 L83.9436382,5.26400004 L83.9436382,11.7200011 C82.9716381,10.6880009 81.6276379,10.0640008 79.9956376,10.0640008 C76.575637,10.0640008 74.1516366,12.9200013 74.1516366,16.5680019 C74.1516366,20.2160025 76.575637,23.072003 79.9956376,23.072003 Z M80.9436377,19.6880024 C79.2756375,19.6880024 77.9796373,18.3440022 77.9796373,16.5680019 C77.9796373,14.8040016 79.2756375,13.4480014 80.9436377,13.4480014 C82.623638,13.4480014 83.9436382,14.8040016 83.9436382,16.5680019 C83.9436382,18.3440022 82.623638,19.6880024 80.9436377,19.6880024 Z M96.5861833,23.072003 C100.402184,23.072003 102.790184,20.8280026 102.790184,17.8280021 C102.790184,15.1520017 101.026184,13.4240014 97.4381835,12.5960012 C95.2301831,12.0920012 94.558183,11.348001 94.558183,10.4120009 C94.558183,9.57200075 95.3501831,8.98400065 96.4781833,8.98400065 C97.6181835,8.98400065 98.3621836,9.68000077 98.5301836,10.904001 L102.418184,10.904001 C102.142184,7.50800041 99.5981838,5.69600011 96.2981833,5.69600011 C92.8901827,5.69600011 90.5501823,7.80800046 90.5501823,10.7240009 C90.5501823,13.3040014 92.4581826,15.0800017 95.6381832,15.7640018 C98.1701836,16.3040019 98.7821837,17.072002 98.7821837,18.0200021 C98.7821837,19.0520023 97.8101835,19.7360024 96.4061833,19.7360024 C94.738183,19.7360024 93.4421828,19.0520023 92.1101826,17.7680021 L90.4661823,19.5800024 C92.2181826,21.9800028 94.378183,23.072003 96.5861833,23.072003 Z M106.972728,9.20000069 C108.220728,9.20000069 109.180729,8.30000054 109.180729,7.10000034 C109.180729,5.91200015 108.220728,5 106.972728,5 C105.724728,5 104.764728,5.91200015 104.764728,7.10000034 C104.764728,8.30000054 105.724728,9.20000069 106.972728,9.20000069 Z M108.892729,22.7840029 L108.892729,10.3520009 L105.040728,10.3520009 L105.040728,22.7840029 L108.892729,22.7840029 Z M118.007275,28.3520038 C122.159275,28.3520038 124.679276,25.9160034 124.679276,21.9920028 L124.679276,10.3520009 L120.887275,10.3520009 L120.887275,11.7200011 C119.915275,10.6880009 118.571275,10.0640008 116.939274,10.0640008 C113.519274,10.0640008 111.095273,12.9200013 111.095273,16.5680019 C111.095273,20.0960025 113.519274,22.9520029 116.939274,22.9520029 C118.571275,22.9520029 119.915275,22.3280028 120.887275,21.3080027 L120.887275,22.2320028 C120.887275,24.1040031 119.555275,25.1840033 117.575274,25.1840033 C116.039274,25.1840033 114.815274,24.6680032 113.651274,23.6720031 L112.079274,25.6760034 C113.759274,27.4760037 115.715274,28.3520038 118.007275,28.3520038 Z M117.887275,19.6880024 C116.219274,19.6880024 114.923274,18.3440022 114.923274,16.5680019 C114.923274,14.8040016 116.219274,13.4480014 117.887275,13.4480014 C119.567275,13.4480014 120.887275,14.8040016 120.887275,16.5680019 C120.887275,18.3440022 119.567275,19.6880024 117.887275,19.6880024 Z M131.48982,22.7840029 L131.48982,16.0640008 C131.48982,14.3600015 132.53382,13.4480014 133.78182,13.4480014 C134.89782,13.4480014 135.78582,14.4800016 135.78582,15.5960017 L135.78582,22.7840029 L139.637819,22.7840029 L139.637819,14.9840016 C139.637819,12.0440012 137.657821,10.0640008 134.93382,10.0640008 C133.51782,10.0640008 132.32982,10.6400009 131.48982,11.6600011 L131.48982,10.3520009 L127.637819,10.3520009 L127.637819,22.7840029 L131.48982,22.7840029 Z" id="BoldSign" fill="#283A5E" fill-rule="nonzero"></path>
        </g>
    </g>
</svg>